<svg xmlns="http://www.w3.org/2000/svg" viewBox="0 0 577 575"><defs><style>.cls-1{fill:#2e124c;}.cls-10,.cls-11,.cls-12,.cls-2,.cls-4,.cls-5,.cls-6,.cls-7,.cls-8,.cls-9{fill:none;stroke-miterlimit:10;}.cls-2{stroke:#fff;}.cls-13,.cls-3{font-size:8px;}.cls-13,.cls-14,.cls-15,.cls-3{fill:#fff;}.cls-15,.cls-3{font-family:OpenSans-Light, Open Sans;}.cls-4,.cls-5{stroke:#dcddde;}.cls-4,.cls-5,.cls-6,.cls-7{stroke-width:0.75px;}.cls-5,.cls-7{stroke-dasharray:2 2;}.cls-6,.cls-7{stroke:#d9d9d9;}.cls-8,.cls-9{stroke:#adafb2;stroke-width:0.5px;}.cls-9{stroke-dasharray:1 2;}.cls-10{stroke:#5b53a3;}.cls-10,.cls-11,.cls-12{stroke-linecap:round;stroke-width:2px;}.cls-11{stroke:#a94986;}.cls-12{stroke:#d0b0d4;}.cls-13{font-family:OpenSans-Bold, Open Sans;font-weight:700;}.cls-14{font-size:18px;font-family:OpenSans, Open Sans;}.cls-15{font-size:14px;}</style></defs><title>total_debt_77_2016_bright</title><g id="Layer_2" data-name="Layer 2"><rect class="cls-1" width="577" height="575"/></g><g id="Layer_1" data-name="Layer 1"><line class="cls-2" x1="93.43" y1="512.64" x2="526.43" y2="512.64"/><text class="cls-3" transform="translate(82.1 520.25)">0</text><text class="cls-3" transform="translate(63.83 448.08)">50000</text><text class="cls-3" transform="translate(59.27 375.92)">100000</text><text class="cls-3" transform="translate(59.27 303.75)">150000</text><text class="cls-3" transform="translate(59.27 231.58)">200000</text><text class="cls-3" transform="translate(59.27 159.42)">250000</text><text class="cls-3" transform="translate(59.27 87.25)">300000</text><line class="cls-2" x1="93.43" y1="512.64" x2="93.43" y2="79.64"/><line class="cls-4" x1="93.43" y1="512.64" x2="94.43" y2="512.64"/><line class="cls-5" x1="96.43" y1="512.64" x2="524.43" y2="512.64"/><line class="cls-4" x1="525.43" y1="512.64" x2="526.43" y2="512.64"/><line class="cls-4" x1="93.43" y1="440.47" x2="94.43" y2="440.47"/><line class="cls-5" x1="96.43" y1="440.47" x2="524.43" y2="440.47"/><line class="cls-4" x1="525.43" y1="440.47" x2="526.43" y2="440.47"/><line class="cls-4" x1="93.43" y1="368.31" x2="94.43" y2="368.31"/><line class="cls-5" x1="96.43" y1="368.31" x2="524.43" y2="368.31"/><line class="cls-4" x1="525.43" y1="368.31" x2="526.43" y2="368.31"/><line class="cls-4" x1="93.43" y1="296.14" x2="94.43" y2="296.14"/><line class="cls-5" x1="96.43" y1="296.14" x2="524.43" y2="296.14"/><line class="cls-4" x1="525.43" y1="296.14" x2="526.43" y2="296.14"/><line class="cls-4" x1="93.43" y1="223.97" x2="94.43" y2="223.97"/><line class="cls-5" x1="96.43" y1="223.97" x2="524.43" y2="223.97"/><line class="cls-4" x1="525.43" y1="223.97" x2="526.43" y2="223.97"/><line class="cls-4" x1="93.43" y1="151.81" x2="94.43" y2="151.81"/><line class="cls-5" x1="96.43" y1="151.81" x2="524.43" y2="151.81"/><line class="cls-4" x1="525.43" y1="151.81" x2="526.43" y2="151.81"/><line class="cls-6" x1="93.43" y1="79.64" x2="94.43" y2="79.64"/><line class="cls-7" x1="96.43" y1="79.64" x2="524.43" y2="79.64"/><line class="cls-6" x1="525.43" y1="79.64" x2="526.43" y2="79.64"/><line class="cls-8" x1="93.43" y1="488.58" x2="93.93" y2="488.58"/><line class="cls-9" x1="95.93" y1="488.58" x2="524.93" y2="488.58"/><line class="cls-8" x1="525.93" y1="488.58" x2="526.43" y2="488.58"/><line class="cls-8" x1="93.43" y1="464.53" x2="93.93" y2="464.53"/><line class="cls-9" x1="95.93" y1="464.53" x2="524.93" y2="464.53"/><line class="cls-8" x1="525.93" y1="464.53" x2="526.43" y2="464.53"/><line class="cls-8" x1="93.43" y1="416.42" x2="93.93" y2="416.42"/><line class="cls-9" x1="95.93" y1="416.42" x2="524.93" y2="416.42"/><line class="cls-8" x1="525.93" y1="416.42" x2="526.43" y2="416.42"/><line class="cls-8" x1="93.43" y1="392.36" x2="93.93" y2="392.36"/><line class="cls-9" x1="95.93" y1="392.36" x2="524.93" y2="392.36"/><line class="cls-8" x1="525.93" y1="392.36" x2="526.43" y2="392.36"/><line class="cls-8" x1="93.43" y1="344.25" x2="93.93" y2="344.25"/><line class="cls-9" x1="95.93" y1="344.25" x2="524.93" y2="344.25"/><line class="cls-8" x1="525.93" y1="344.25" x2="526.43" y2="344.25"/><line class="cls-8" x1="93.43" y1="320.2" x2="93.93" y2="320.2"/><line class="cls-9" x1="95.93" y1="320.2" x2="524.93" y2="320.2"/><line class="cls-8" x1="525.93" y1="320.2" x2="526.43" y2="320.2"/><line class="cls-8" x1="93.43" y1="272.08" x2="93.93" y2="272.08"/><line class="cls-9" x1="95.93" y1="272.08" x2="524.93" y2="272.08"/><line class="cls-8" x1="525.93" y1="272.08" x2="526.43" y2="272.08"/><line class="cls-8" x1="93.43" y1="248.03" x2="93.93" y2="248.03"/><line class="cls-9" x1="95.93" y1="248.03" x2="524.93" y2="248.03"/><line class="cls-8" x1="525.93" y1="248.03" x2="526.43" y2="248.03"/><line class="cls-8" x1="93.43" y1="199.92" x2="93.93" y2="199.92"/><line class="cls-9" x1="95.93" y1="199.92" x2="524.93" y2="199.92"/><line class="cls-8" x1="525.93" y1="199.92" x2="526.43" y2="199.92"/><line class="cls-8" x1="93.43" y1="175.86" x2="93.93" y2="175.86"/><line class="cls-9" x1="95.93" y1="175.86" x2="524.93" y2="175.86"/><line class="cls-8" x1="525.93" y1="175.86" x2="526.43" y2="175.86"/><line class="cls-8" x1="93.43" y1="127.75" x2="93.93" y2="127.75"/><line class="cls-9" x1="95.93" y1="127.75" x2="524.93" y2="127.75"/><line class="cls-8" x1="525.93" y1="127.75" x2="526.43" y2="127.75"/><line class="cls-8" x1="93.43" y1="103.7" x2="93.93" y2="103.7"/><line class="cls-9" x1="95.93" y1="103.7" x2="524.93" y2="103.7"/><line class="cls-8" x1="525.93" y1="103.7" x2="526.43" y2="103.7"/><line class="cls-10" x1="290.69" y1="499.54" x2="281.06" y2="500.38"/><line class="cls-10" x1="300.31" y1="498.8" x2="290.69" y2="499.54"/><line class="cls-10" x1="309.93" y1="494.78" x2="300.31" y2="498.8"/><line class="cls-10" x1="319.55" y1="489.26" x2="309.93" y2="494.78"/><line class="cls-10" x1="329.17" y1="487.02" x2="319.55" y2="489.26"/><line class="cls-10" x1="338.8" y1="484.85" x2="329.17" y2="487.02"/><line class="cls-10" x1="348.42" y1="482.75" x2="338.8" y2="484.85"/><line class="cls-10" x1="358.04" y1="480.21" x2="348.42" y2="482.75"/><line class="cls-10" x1="367.66" y1="478.08" x2="358.04" y2="480.21"/><line class="cls-10" x1="377.29" y1="477.55" x2="367.66" y2="478.08"/><line class="cls-10" x1="386.91" y1="476.06" x2="377.29" y2="477.55"/><line class="cls-10" x1="396.53" y1="472.39" x2="386.91" y2="476.06"/><line class="cls-10" x1="406.15" y1="468.12" x2="396.53" y2="472.39"/><line class="cls-10" x1="415.77" y1="464.46" x2="406.15" y2="468.12"/><line class="cls-10" x1="425.4" y1="462.09" x2="415.77" y2="464.46"/><line class="cls-10" x1="435.02" y1="457.29" x2="425.4" y2="462.09"/><line class="cls-10" x1="444.64" y1="450.74" x2="435.02" y2="457.29"/><line class="cls-10" x1="454.26" y1="446.23" x2="444.64" y2="450.74"/><line class="cls-10" x1="463.89" y1="436.34" x2="454.26" y2="446.23"/><line class="cls-10" x1="473.51" y1="431.01" x2="463.89" y2="436.34"/><line class="cls-10" x1="483.13" y1="432.69" x2="473.51" y2="431.01"/><line class="cls-10" x1="492.75" y1="433.72" x2="483.13" y2="432.69"/><line class="cls-10" x1="502.37" y1="432.05" x2="492.75" y2="433.72"/><line class="cls-10" x1="512" y1="432.88" x2="502.37" y2="432.05"/><line class="cls-10" x1="521.62" y1="430.59" x2="512" y2="432.88"/><line class="cls-11" x1="290.69" y1="446.34" x2="281.06" y2="451.32"/><line class="cls-11" x1="300.31" y1="443.29" x2="290.69" y2="446.34"/><line class="cls-11" x1="309.93" y1="436.68" x2="300.31" y2="443.29"/><line class="cls-11" x1="319.55" y1="428.54" x2="309.93" y2="436.68"/><line class="cls-11" x1="329.17" y1="424.71" x2="319.55" y2="428.54"/><line class="cls-11" x1="338.8" y1="420.15" x2="329.17" y2="424.71"/><line class="cls-11" x1="348.42" y1="412.4" x2="338.8" y2="420.15"/><line class="cls-11" x1="358.04" y1="403.19" x2="348.42" y2="412.4"/><line class="cls-11" x1="367.66" y1="398.48" x2="358.04" y2="403.19"/><line class="cls-11" x1="377.29" y1="394.82" x2="367.66" y2="398.48"/><line class="cls-11" x1="386.91" y1="385.18" x2="377.29" y2="394.82"/><line class="cls-11" x1="396.53" y1="371.79" x2="386.91" y2="385.18"/><line class="cls-11" x1="406.15" y1="357.27" x2="396.53" y2="371.79"/><line class="cls-11" x1="415.77" y1="349.59" x2="406.15" y2="357.27"/><line class="cls-11" x1="425.4" y1="346.86" x2="415.77" y2="349.59"/><line class="cls-11" x1="435.02" y1="346.25" x2="425.4" y2="346.86"/><line class="cls-11" x1="444.64" y1="335.54" x2="435.02" y2="346.25"/><line class="cls-11" x1="454.26" y1="304.83" x2="444.64" y2="335.54"/><line class="cls-11" x1="463.89" y1="245.99" x2="454.26" y2="304.83"/><line class="cls-11" x1="473.51" y1="220.74" x2="463.89" y2="245.99"/><line class="cls-11" x1="483.13" y1="229.41" x2="473.51" y2="220.74"/><line class="cls-11" x1="492.75" y1="235.86" x2="483.13" y2="229.41"/><line class="cls-11" x1="502.37" y1="239.06" x2="492.75" y2="235.86"/><line class="cls-11" x1="512" y1="244.55" x2="502.37" y2="239.06"/><line class="cls-11" x1="521.62" y1="246.94" x2="512" y2="244.55"/><line class="cls-12" x1="107.86" y1="469.43" x2="98.24" y2="475.64"/><line class="cls-12" x1="117.49" y1="467.81" x2="107.86" y2="469.43"/><line class="cls-12" x1="127.11" y1="460.67" x2="117.49" y2="467.81"/><line class="cls-12" x1="136.73" y1="454.06" x2="127.11" y2="460.67"/><line class="cls-12" x1="146.35" y1="458.87" x2="136.73" y2="454.06"/><line class="cls-12" x1="155.97" y1="460.44" x2="146.35" y2="458.87"/><line class="cls-12" x1="165.6" y1="462.66" x2="155.97" y2="460.44"/><line class="cls-12" x1="175.22" y1="455.01" x2="165.6" y2="462.66"/><line class="cls-12" x1="184.84" y1="453.71" x2="175.22" y2="455.01"/><line class="cls-12" x1="194.46" y1="457.34" x2="184.84" y2="453.71"/><line class="cls-12" x1="204.09" y1="460.69" x2="194.46" y2="457.34"/><line class="cls-12" x1="213.71" y1="457.86" x2="204.09" y2="460.69"/><line class="cls-12" x1="223.33" y1="455.19" x2="213.71" y2="457.86"/><line class="cls-12" x1="232.95" y1="453.25" x2="223.33" y2="455.19"/><line class="cls-12" x1="242.57" y1="452.55" x2="232.95" y2="453.25"/><line class="cls-12" x1="252.2" y1="449.55" x2="242.57" y2="452.55"/><line class="cls-12" x1="261.82" y1="445.95" x2="252.2" y2="449.55"/><line class="cls-12" x1="271.44" y1="442.96" x2="261.82" y2="445.95"/><line class="cls-12" x1="281.06" y1="439.06" x2="271.44" y2="442.96"/><line class="cls-12" x1="290.69" y1="433.24" x2="281.06" y2="439.06"/><line class="cls-12" x1="300.31" y1="429.45" x2="290.69" y2="433.24"/><line class="cls-12" x1="309.93" y1="418.82" x2="300.31" y2="429.45"/><line class="cls-12" x1="319.55" y1="405.17" x2="309.93" y2="418.82"/><line class="cls-12" x1="329.17" y1="399.09" x2="319.55" y2="405.17"/><line class="cls-12" x1="338.8" y1="392.35" x2="329.17" y2="399.09"/><line class="cls-12" x1="348.42" y1="382.51" x2="338.8" y2="392.35"/><line class="cls-12" x1="358.04" y1="370.76" x2="348.42" y2="382.51"/><line class="cls-12" x1="367.66" y1="363.92" x2="358.04" y2="370.76"/><line class="cls-12" x1="377.29" y1="359.73" x2="367.66" y2="363.92"/><line class="cls-12" x1="386.91" y1="348.61" x2="377.29" y2="359.73"/><line class="cls-12" x1="396.53" y1="331.54" x2="386.91" y2="348.61"/><line class="cls-12" x1="406.15" y1="312.74" x2="396.53" y2="331.54"/><line class="cls-12" x1="415.77" y1="301.4" x2="406.15" y2="312.74"/><line class="cls-12" x1="425.4" y1="296.32" x2="415.77" y2="301.4"/><line class="cls-12" x1="435.02" y1="290.9" x2="425.4" y2="296.32"/><line class="cls-12" x1="444.64" y1="273.64" x2="435.02" y2="290.9"/><line class="cls-12" x1="454.26" y1="238.43" x2="444.64" y2="273.64"/><line class="cls-12" x1="463.89" y1="169.69" x2="454.26" y2="238.43"/><line class="cls-12" x1="473.51" y1="139.11" x2="463.89" y2="169.69"/><line class="cls-12" x1="483.13" y1="149.45" x2="473.51" y2="139.11"/><line class="cls-12" x1="492.75" y1="156.94" x2="483.13" y2="149.45"/><line class="cls-12" x1="502.37" y1="158.47" x2="492.75" y2="156.94"/><line class="cls-12" x1="512" y1="164.8" x2="502.37" y2="158.47"/><line class="cls-12" x1="521.62" y1="164.88" x2="512" y2="164.8"/><text class="cls-13" transform="translate(519.27 517.29) rotate(90)">2015-16(est)</text><text class="cls-3" transform="translate(509.65 517.29) rotate(90)">2014-15</text><text class="cls-3" transform="translate(500.03 517.29) rotate(90)">2013-14</text><text class="cls-3" transform="translate(490.4 517.29) rotate(90)">2012-13</text><text class="cls-3" transform="translate(480.78 517.29) rotate(90)">2011-12</text><text class="cls-13" transform="translate(471.16 517.29) rotate(90)">2010-11</text><text class="cls-3" transform="translate(461.54 517.29) rotate(90)">2009-10</text><text class="cls-3" transform="translate(451.91 517.29) rotate(90)">2008-09</text><text class="cls-3" transform="translate(442.29 517.29) rotate(90)">2007-08</text><text class="cls-3" transform="translate(432.67 517.29) rotate(90)">2006-07</text><text class="cls-13" transform="translate(423.05 517.29) rotate(90)">2005-06</text><text class="cls-3" transform="translate(413.42 517.29) rotate(90)">2004-05</text><text class="cls-3" transform="translate(403.8 517.29) rotate(90)">2003-04</text><text class="cls-3" transform="translate(394.18 517.29) rotate(90)">2002-03</text><text class="cls-3" transform="translate(384.56 517.29) rotate(90)">2001-02</text><text class="cls-13" transform="translate(374.94 517.29) rotate(90)">2000-01</text><text class="cls-3" transform="translate(365.31 517.29) rotate(90)">1999-00</text><text class="cls-3" transform="translate(355.69 517.29) rotate(90)">1998-99</text><text class="cls-3" transform="translate(346.07 517.29) rotate(90)">1997-98</text><text class="cls-3" transform="translate(336.45 517.29) rotate(90)">1996-97</text><text class="cls-13" transform="translate(326.82 517.29) rotate(90)">1995-96</text><text class="cls-3" transform="translate(317.2 517.29) rotate(90)">1994-95</text><text class="cls-3" transform="translate(307.58 517.29) rotate(90)">1993-94</text><text class="cls-3" transform="translate(297.96 517.29) rotate(90)">1992-93</text><text class="cls-3" transform="translate(288.34 517.29) rotate(90)">1991-92</text><text class="cls-13" transform="translate(278.71 517.29) rotate(90)">1990-91</text><text class="cls-3" transform="translate(269.09 517.29) rotate(90)">1989-90</text><text class="cls-3" transform="translate(259.47 517.29) rotate(90)">1988-89</text><text class="cls-3" transform="translate(249.85 517.29) rotate(90)">1987-88</text><text class="cls-3" transform="translate(240.22 517.29) rotate(90)">1986-87</text><text class="cls-13" transform="translate(230.6 517.29) rotate(90)">1985-86</text><text class="cls-3" transform="translate(220.98 517.29) rotate(90)">1984-85</text><text class="cls-3" transform="translate(211.36 517.29) rotate(90)">1983-84</text><text class="cls-3" transform="translate(201.74 517.29) rotate(90)">1982-83</text><text class="cls-3" transform="translate(192.11 517.29) rotate(90)">1981-82</text><text class="cls-13" transform="translate(182.49 517.29) rotate(90)">1980-81</text><text class="cls-3" transform="translate(172.87 517.29) rotate(90)">1979-80</text><text class="cls-3" transform="translate(163.25 517.29) rotate(90)">1978-79</text><text class="cls-3" transform="translate(153.63 517.29) rotate(90)">1977-78</text><text class="cls-3" transform="translate(144 517.29) rotate(90)">1976-77</text><text class="cls-13" transform="translate(134.38 517.29) rotate(90)">1975-76</text><text class="cls-3" transform="translate(124.76 517.29) rotate(90)">1974-75</text><text class="cls-3" transform="translate(115.13 517.29) rotate(90)">1973-74</text><text class="cls-3" transform="translate(105.51 517.29) rotate(90)">1972-73</text><text class="cls-13" transform="translate(95.89 517.29) rotate(90)">1971-72</text><text class="cls-3" transform="translate(466.93 217.72)">Undergraduates</text><text class="cls-3" transform="translate(466.93 136.3)">All Students</text><text class="cls-3" transform="translate(466.93 427.22)">Graduates</text><text class="cls-14" transform="translate(174.22 44.76)">TOTAL AID IN 2015 DOLLARS OVER <tspan x="74.69" y="21.6">TIME: 1971–2016</tspan></text><text class="cls-15" transform="translate(47.9 359.47) rotate(-90)">millions of (2015) dollars</text></g></svg>