<svg xmlns="http://www.w3.org/2000/svg" viewBox="0 0 577 577"><defs><style>.cls-1{fill:#d55c27;stroke:#231f20;}.cls-1,.cls-10,.cls-11,.cls-4,.cls-6,.cls-7,.cls-8,.cls-9{stroke-miterlimit:10;}.cls-2{font-size:14px;}.cls-2,.cls-3,.cls-5{fill:#fff;}.cls-2,.cls-5{font-family:OpenSans-Light, Open Sans;}.cls-3{font-size:18px;font-family:OpenSans, Open Sans;}.cls-10,.cls-11,.cls-4,.cls-6,.cls-7,.cls-8,.cls-9{fill:none;}.cls-4,.cls-6,.cls-7,.cls-8,.cls-9{stroke:#fff;}.cls-5{font-size:8px;}.cls-6,.cls-7{stroke-width:0.75px;}.cls-7,.cls-9{stroke-dasharray:1 2;}.cls-8,.cls-9{stroke-width:0.5px;}.cls-10{stroke:#1a65ad;}.cls-10,.cls-11{stroke-linecap:round;stroke-width:2px;}.cls-11{stroke:#8fcfe4;}</style></defs><title>tuition_76_2016</title><g id="Layer_1" data-name="Layer 1"><rect class="cls-1" x="0.5" y="0.5" width="576" height="576"/></g><g id="Layer_2" data-name="Layer 2"><text class="cls-2" transform="translate(57.93 397.66) rotate(-90)">$ Average Tuition Price in 2016 Dollars</text><text class="cls-3" transform="translate(85.44 49.37)">AVERAGE TUITION AND FEES IN 2016 DOLLARS:<tspan x="103.75" y="21.6">1976-77 TO 2016-1700</tspan></text><line class="cls-4" x1="104.18" y1="516.59" x2="535.18" y2="516.59"/><text class="cls-5" transform="translate(92.88 524.16)">0</text><text class="cls-5" transform="translate(79.18 462.59)">5000</text><text class="cls-5" transform="translate(74.62 401.02)">10000</text><text class="cls-5" transform="translate(74.62 339.45)">15000</text><text class="cls-5" transform="translate(74.62 277.88)">20000</text><text class="cls-5" transform="translate(74.62 216.31)">25000</text><text class="cls-5" transform="translate(74.62 154.74)">30000</text><text class="cls-5" transform="translate(74.62 93.16)">35000</text><line class="cls-4" x1="104.18" y1="516.59" x2="104.18" y2="85.59"/><line class="cls-6" x1="104.18" y1="516.59" x2="104.68" y2="516.59"/><line class="cls-7" x1="106.68" y1="516.59" x2="533.69" y2="516.59"/><line class="cls-6" x1="534.68" y1="516.59" x2="535.18" y2="516.59"/><line class="cls-6" x1="104.18" y1="455.02" x2="104.68" y2="455.02"/><line class="cls-7" x1="106.68" y1="455.02" x2="533.69" y2="455.02"/><line class="cls-6" x1="534.68" y1="455.02" x2="535.18" y2="455.02"/><line class="cls-6" x1="104.18" y1="393.45" x2="104.68" y2="393.45"/><line class="cls-7" x1="106.68" y1="393.45" x2="533.69" y2="393.45"/><line class="cls-6" x1="534.68" y1="393.45" x2="535.18" y2="393.45"/><line class="cls-6" x1="104.18" y1="331.87" x2="104.68" y2="331.87"/><line class="cls-7" x1="106.68" y1="331.87" x2="533.69" y2="331.87"/><line class="cls-6" x1="534.68" y1="331.87" x2="535.18" y2="331.87"/><line class="cls-6" x1="104.18" y1="270.3" x2="104.68" y2="270.3"/><line class="cls-7" x1="106.68" y1="270.3" x2="533.69" y2="270.3"/><line class="cls-6" x1="534.68" y1="270.3" x2="535.18" y2="270.3"/><line class="cls-6" x1="104.18" y1="208.73" x2="104.68" y2="208.73"/><line class="cls-7" x1="106.68" y1="208.73" x2="533.69" y2="208.73"/><line class="cls-6" x1="534.68" y1="208.73" x2="535.18" y2="208.73"/><line class="cls-6" x1="104.18" y1="147.16" x2="104.68" y2="147.16"/><line class="cls-7" x1="106.68" y1="147.16" x2="533.69" y2="147.16"/><line class="cls-6" x1="534.68" y1="147.16" x2="535.18" y2="147.16"/><line class="cls-6" x1="104.18" y1="85.59" x2="104.68" y2="85.59"/><line class="cls-7" x1="106.68" y1="85.59" x2="533.69" y2="85.59"/><line class="cls-6" x1="534.68" y1="85.59" x2="535.18" y2="85.59"/><line class="cls-8" x1="104.18" y1="496.06" x2="104.68" y2="496.06"/><line class="cls-9" x1="106.68" y1="496.06" x2="533.69" y2="496.06"/><line class="cls-8" x1="534.68" y1="496.06" x2="535.18" y2="496.06"/><line class="cls-8" x1="104.18" y1="475.54" x2="104.68" y2="475.54"/><line class="cls-9" x1="106.68" y1="475.54" x2="533.69" y2="475.54"/><line class="cls-8" x1="534.68" y1="475.54" x2="535.18" y2="475.54"/><line class="cls-8" x1="104.18" y1="434.49" x2="104.68" y2="434.49"/><line class="cls-9" x1="106.68" y1="434.49" x2="533.69" y2="434.49"/><line class="cls-8" x1="534.68" y1="434.49" x2="535.18" y2="434.49"/><line class="cls-8" x1="104.18" y1="413.97" x2="104.68" y2="413.97"/><line class="cls-9" x1="106.68" y1="413.97" x2="533.69" y2="413.97"/><line class="cls-8" x1="534.68" y1="413.97" x2="535.18" y2="413.97"/><line class="cls-8" x1="104.18" y1="372.92" x2="104.68" y2="372.92"/><line class="cls-9" x1="106.68" y1="372.92" x2="533.69" y2="372.92"/><line class="cls-8" x1="534.68" y1="372.92" x2="535.18" y2="372.92"/><line class="cls-8" x1="104.18" y1="352.4" x2="104.68" y2="352.4"/><line class="cls-9" x1="106.68" y1="352.4" x2="533.69" y2="352.4"/><line class="cls-8" x1="534.68" y1="352.4" x2="535.18" y2="352.4"/><line class="cls-8" x1="104.18" y1="311.35" x2="104.68" y2="311.35"/><line class="cls-9" x1="106.68" y1="311.35" x2="533.69" y2="311.35"/><line class="cls-8" x1="534.68" y1="311.35" x2="535.18" y2="311.35"/><line class="cls-8" x1="104.18" y1="290.83" x2="104.68" y2="290.83"/><line class="cls-9" x1="106.68" y1="290.83" x2="533.69" y2="290.83"/><line class="cls-8" x1="534.68" y1="290.83" x2="535.18" y2="290.83"/><line class="cls-8" x1="104.18" y1="249.78" x2="104.68" y2="249.78"/><line class="cls-9" x1="106.68" y1="249.78" x2="533.69" y2="249.78"/><line class="cls-8" x1="534.68" y1="249.78" x2="535.18" y2="249.78"/><line class="cls-8" x1="104.18" y1="229.26" x2="104.68" y2="229.26"/><line class="cls-9" x1="106.68" y1="229.26" x2="533.69" y2="229.26"/><line class="cls-8" x1="534.68" y1="229.26" x2="535.18" y2="229.26"/><line class="cls-8" x1="104.18" y1="188.21" x2="104.68" y2="188.21"/><line class="cls-9" x1="106.68" y1="188.21" x2="533.69" y2="188.21"/><line class="cls-8" x1="534.68" y1="188.21" x2="535.18" y2="188.21"/><line class="cls-8" x1="104.18" y1="167.68" x2="104.68" y2="167.68"/><line class="cls-9" x1="106.68" y1="167.68" x2="533.69" y2="167.68"/><line class="cls-8" x1="534.68" y1="167.68" x2="535.18" y2="167.68"/><line class="cls-8" x1="104.18" y1="126.64" x2="104.68" y2="126.64"/><line class="cls-9" x1="106.68" y1="126.64" x2="533.69" y2="126.64"/><line class="cls-8" x1="534.68" y1="126.64" x2="535.18" y2="126.64"/><line class="cls-8" x1="104.18" y1="106.11" x2="104.68" y2="106.11"/><line class="cls-9" x1="106.68" y1="106.11" x2="533.69" y2="106.11"/><line class="cls-8" x1="534.68" y1="106.11" x2="535.18" y2="106.11"/><line class="cls-10" x1="176.02" y1="383.47" x2="128.13" y2="385.07"/><line class="cls-10" x1="223.91" y1="336.43" x2="176.02" y2="383.47"/><line class="cls-10" x1="271.8" y1="303.06" x2="223.91" y2="336.43"/><line class="cls-10" x1="319.68" y1="271.29" x2="271.8" y2="303.06"/><line class="cls-10" x1="367.57" y1="226.46" x2="319.68" y2="271.29"/><line class="cls-10" x1="415.46" y1="191.74" x2="367.57" y2="226.46"/><line class="cls-10" x1="463.35" y1="150.85" x2="415.46" y2="191.74"/><line class="cls-10" x1="511.24" y1="104.31" x2="463.35" y2="150.85"/><line class="cls-11" x1="176.02" y1="487.16" x2="128.13" y2="484.57"/><line class="cls-11" x1="223.91" y1="478.29" x2="176.02" y2="487.16"/><line class="cls-11" x1="271.8" y1="470.78" x2="223.91" y2="478.29"/><line class="cls-11" x1="319.68" y1="460.44" x2="271.8" y2="470.78"/><line class="cls-11" x1="367.57" y1="453.66" x2="319.68" y2="460.44"/><line class="cls-11" x1="415.46" y1="432.11" x2="367.57" y2="453.66"/><line class="cls-11" x1="463.35" y1="407.98" x2="415.46" y2="432.11"/><line class="cls-11" x1="511.24" y1="397.76" x2="463.35" y2="407.98"/><text class="cls-5" transform="translate(496.25 538.48)">2016-17</text><text class="cls-5" transform="translate(448.37 538.48)">2011-12</text><text class="cls-5" transform="translate(400.48 538.48)">2006-07</text><text class="cls-5" transform="translate(352.59 538.48)">2001-02</text><text class="cls-5" transform="translate(304.7 538.48)">1996-97</text><text class="cls-5" transform="translate(256.81 538.48)">1991-92</text><text class="cls-5" transform="translate(208.92 538.48)">1986-87</text><text class="cls-5" transform="translate(161.03 538.48)">1981-82</text><text class="cls-5" transform="translate(113.14 538.48)">1976-77</text><text class="cls-5" transform="translate(118.63 368.09)">$10,680</text><text class="cls-5" transform="translate(120.91 474.09)">$2,600</text><text class="cls-5" transform="translate(473.63 102.09)">$33,480</text><text class="cls-5" transform="translate(475.91 386.09)">$9,650</text><text class="cls-5" transform="translate(508.47 124.09)">Private</text><text class="cls-5" transform="translate(509.97 411.09)">Public</text></g></svg>