<svg xmlns="http://www.w3.org/2000/svg" viewBox="0 0 576.5 576"><defs><style>.cls-1{fill:#17457b;}.cls-2,.cls-4,.cls-5,.cls-6,.cls-7,.cls-8{fill:none;stroke-miterlimit:10;}.cls-2,.cls-4,.cls-5,.cls-8{stroke:#fff;}.cls-3{font-size:8px;}.cls-10,.cls-3,.cls-9{fill:#fff;}.cls-3,.cls-9{font-family:OpenSans-Light, Open Sans;}.cls-4{stroke-width:0.75px;stroke-dasharray:2 2;}.cls-5{stroke-width:0.5px;stroke-dasharray:1 2;}.cls-6{stroke:#056c48;}.cls-6,.cls-7,.cls-8{stroke-linecap:round;stroke-width:2px;}.cls-7{stroke:#9ecc3b;}.cls-9{font-size:14px;}.cls-10{font-size:18px;font-family:OpenSans, Open Sans;}</style></defs><title>aid-student-71-2016-svg</title><g id="Layer_2" data-name="Layer 2"><rect class="cls-1" width="576.5" height="576"/></g><g id="Layer_1" data-name="Layer 1"><line class="cls-2" x1="90.18" y1="514.94" x2="521.76" y2="514.94"/><text class="cls-3" transform="translate(84.93 522.52)">0</text><text class="cls-3" transform="translate(71.23 450.59)">5000</text><text class="cls-3" transform="translate(66.66 378.66)">10000</text><text class="cls-3" transform="translate(66.66 306.73)">15000</text><text class="cls-3" transform="translate(66.66 234.8)">20000</text><text class="cls-3" transform="translate(66.66 162.87)">25000</text><text class="cls-3" transform="translate(66.66 90.94)">30000</text><line class="cls-2" x1="96.24" y1="514.94" x2="96.24" y2="83.35"/><line class="cls-4" x1="96.24" y1="514.94" x2="527.82" y2="514.94"/><line class="cls-4" x1="96.24" y1="443.01" x2="527.82" y2="443.01"/><line class="cls-4" x1="96.24" y1="371.08" x2="527.82" y2="371.08"/><line class="cls-4" x1="96.24" y1="299.15" x2="527.82" y2="299.15"/><line class="cls-4" x1="96.24" y1="227.22" x2="527.82" y2="227.22"/><line class="cls-4" x1="96.24" y1="155.28" x2="527.82" y2="155.28"/><line class="cls-4" x1="96.24" y1="83.35" x2="527.82" y2="83.35"/><line class="cls-5" x1="96.24" y1="490.96" x2="527.82" y2="490.96"/><line class="cls-5" x1="96.24" y1="466.98" x2="527.82" y2="466.98"/><line class="cls-5" x1="96.24" y1="419.03" x2="527.82" y2="419.03"/><line class="cls-5" x1="96.24" y1="395.05" x2="527.82" y2="395.05"/><line class="cls-5" x1="96.24" y1="347.1" x2="527.82" y2="347.1"/><line class="cls-5" x1="96.24" y1="323.12" x2="527.82" y2="323.12"/><line class="cls-5" x1="96.24" y1="275.17" x2="527.82" y2="275.17"/><line class="cls-5" x1="96.24" y1="251.19" x2="527.82" y2="251.19"/><line class="cls-5" x1="96.24" y1="203.24" x2="527.82" y2="203.24"/><line class="cls-5" x1="96.24" y1="179.26" x2="527.82" y2="179.26"/><line class="cls-5" x1="96.24" y1="131.31" x2="527.82" y2="131.31"/><line class="cls-5" x1="96.24" y1="107.33" x2="527.82" y2="107.33"/><line class="cls-6" x1="286.79" y1="409.28" x2="277.2" y2="411.66"/><line class="cls-6" x1="296.38" y1="405.59" x2="286.79" y2="409.28"/><line class="cls-6" x1="305.97" y1="377.2" x2="296.38" y2="405.59"/><line class="cls-6" x1="315.56" y1="338.17" x2="305.97" y2="377.2"/><line class="cls-6" x1="325.15" y1="323.22" x2="315.56" y2="338.17"/><line class="cls-6" x1="334.74" y1="309.67" x2="325.15" y2="323.22"/><line class="cls-6" x1="344.33" y1="296.46" x2="334.74" y2="309.67"/><line class="cls-6" x1="353.92" y1="279.54" x2="344.33" y2="296.46"/><line class="cls-6" x1="363.51" y1="269.41" x2="353.92" y2="279.54"/><line class="cls-6" x1="373.1" y1="272.63" x2="363.51" y2="269.41"/><line class="cls-6" x1="382.69" y1="269.28" x2="373.1" y2="272.63"/><line class="cls-6" x1="392.28" y1="263.1" x2="382.69" y2="269.28"/><line class="cls-6" x1="401.88" y1="248.29" x2="392.28" y2="263.1"/><line class="cls-6" x1="411.47" y1="234.8" x2="401.88" y2="248.29"/><line class="cls-6" x1="421.06" y1="225.65" x2="411.47" y2="234.8"/><line class="cls-6" x1="430.65" y1="205.42" x2="421.06" y2="225.65"/><line class="cls-6" x1="440.24" y1="178.55" x2="430.65" y2="205.42"/><line class="cls-6" x1="449.83" y1="167.95" x2="440.24" y2="178.55"/><line class="cls-6" x1="459.42" y1="135.99" x2="449.83" y2="167.95"/><line class="cls-6" x1="469.01" y1="121.16" x2="459.42" y2="135.99"/><line class="cls-6" x1="478.6" y1="130.33" x2="469.01" y2="121.16"/><line class="cls-6" x1="488.19" y1="133.61" x2="478.6" y2="130.33"/><line class="cls-6" x1="497.78" y1="127.39" x2="488.19" y2="133.61"/><line class="cls-6" x1="507.37" y1="133.66" x2="497.78" y2="127.39"/><line class="cls-6" x1="516.96" y1="115.77" x2="507.37" y2="133.66"/><line class="cls-7" x1="286.79" y1="441" x2="277.2" y2="444.07"/><line class="cls-7" x1="296.38" y1="438.12" x2="286.79" y2="441"/><line class="cls-7" x1="305.97" y1="429.7" x2="296.38" y2="438.12"/><line class="cls-7" x1="315.56" y1="420.29" x2="305.97" y2="429.7"/><line class="cls-7" x1="325.15" y1="415.66" x2="315.56" y2="420.29"/><line class="cls-7" x1="334.74" y1="412.22" x2="325.15" y2="415.66"/><line class="cls-7" x1="344.33" y1="405.1" x2="334.74" y2="412.22"/><line class="cls-7" x1="353.92" y1="396.15" x2="344.33" y2="405.1"/><line class="cls-7" x1="363.51" y1="394.09" x2="353.92" y2="396.15"/><line class="cls-7" x1="373.1" y1="393.46" x2="363.51" y2="394.09"/><line class="cls-7" x1="382.69" y1="389.45" x2="373.1" y2="393.46"/><line class="cls-7" x1="392.28" y1="382.18" x2="382.69" y2="389.45"/><line class="cls-7" x1="401.88" y1="372.3" x2="392.28" y2="382.18"/><line class="cls-7" x1="411.47" y1="368.74" x2="401.88" y2="372.3"/><line class="cls-7" x1="421.06" y1="368.53" x2="411.47" y2="368.74"/><line class="cls-7" x1="430.65" y1="370" x2="421.06" y2="368.53"/><line class="cls-7" x1="440.24" y1="364.86" x2="430.65" y2="370"/><line class="cls-7" x1="449.83" y1="346.43" x2="440.24" y2="364.86"/><line class="cls-7" x1="459.42" y1="314.87" x2="449.83" y2="346.43"/><line class="cls-7" x1="469.01" y1="301.96" x2="459.42" y2="314.87"/><line class="cls-7" x1="478.6" y1="307.26" x2="469.01" y2="301.96"/><line class="cls-7" x1="488.19" y1="307.66" x2="478.6" y2="307.26"/><line class="cls-7" x1="497.78" y1="307.06" x2="488.19" y2="307.66"/><line class="cls-7" x1="507.37" y1="308.65" x2="497.78" y2="307.06"/><line class="cls-7" x1="516.96" y1="306.88" x2="507.37" y2="308.65"/><line class="cls-8" x1="104.56" y1="455.57" x2="94.97" y2="463.36"/><line class="cls-8" x1="114.15" y1="454.99" x2="104.56" y2="455.57"/><line class="cls-8" x1="123.74" y1="448.58" x2="114.15" y2="454.99"/><line class="cls-8" x1="133.33" y1="446.08" x2="123.74" y2="448.58"/><line class="cls-8" x1="142.92" y1="450.47" x2="133.33" y2="446.08"/><line class="cls-8" x1="152.52" y1="453.11" x2="142.92" y2="450.47"/><line class="cls-8" x1="162.11" y1="455.26" x2="152.52" y2="453.11"/><line class="cls-8" x1="171.7" y1="447.26" x2="162.11" y2="455.26"/><line class="cls-8" x1="181.29" y1="448.34" x2="171.7" y2="447.26"/><line class="cls-8" x1="190.88" y1="453.79" x2="181.29" y2="448.34"/><line class="cls-8" x1="200.47" y1="457.98" x2="190.88" y2="453.79"/><line class="cls-8" x1="210.06" y1="455.37" x2="200.47" y2="457.98"/><line class="cls-8" x1="219.65" y1="450.97" x2="210.06" y2="455.37"/><line class="cls-8" x1="229.24" y1="448.75" x2="219.65" y2="450.97"/><line class="cls-8" x1="238.83" y1="447.61" x2="229.24" y2="448.75"/><line class="cls-8" x1="248.42" y1="445.62" x2="238.83" y2="447.61"/><line class="cls-8" x1="258.01" y1="443.47" x2="248.42" y2="445.62"/><line class="cls-8" x1="267.6" y1="442.19" x2="258.01" y2="443.47"/><line class="cls-8" x1="277.2" y1="440.16" x2="267.6" y2="442.19"/><line class="cls-8" x1="286.79" y1="437.14" x2="277.2" y2="440.16"/><line class="cls-8" x1="296.38" y1="434.12" x2="286.79" y2="437.14"/><line class="cls-8" x1="305.97" y1="423.04" x2="296.38" y2="434.12"/><line class="cls-8" x1="315.56" y1="409.65" x2="305.97" y2="423.04"/><line class="cls-8" x1="325.15" y1="403.54" x2="315.56" y2="409.65"/><line class="cls-8" x1="334.74" y1="398.81" x2="325.15" y2="403.54"/><line class="cls-8" x1="344.33" y1="390.93" x2="334.74" y2="398.81"/><line class="cls-8" x1="353.92" y1="380.99" x2="344.33" y2="390.93"/><line class="cls-8" x1="363.51" y1="377.92" x2="353.92" y2="380.99"/><line class="cls-8" x1="373.1" y1="377.76" x2="363.51" y2="377.92"/><line class="cls-8" x1="382.69" y1="374.09" x2="373.1" y2="377.76"/><line class="cls-8" x1="392.28" y1="366.59" x2="382.69" y2="374.09"/><line class="cls-8" x1="401.88" y1="355.81" x2="392.28" y2="366.59"/><line class="cls-8" x1="411.47" y1="350.84" x2="401.88" y2="355.81"/><line class="cls-8" x1="421.06" y1="349.43" x2="411.47" y2="350.84"/><line class="cls-8" x1="430.65" y1="347.82" x2="421.06" y2="349.43"/><line class="cls-8" x1="440.24" y1="339.72" x2="430.65" y2="347.82"/><line class="cls-8" x1="449.83" y1="322.45" x2="440.24" y2="339.72"/><line class="cls-8" x1="459.42" y1="291.39" x2="449.83" y2="322.45"/><line class="cls-8" x1="469.01" y1="278.2" x2="459.42" y2="291.39"/><line class="cls-8" x1="478.6" y1="283.86" x2="469.01" y2="278.2"/><line class="cls-8" x1="488.19" y1="284.3" x2="478.6" y2="283.86"/><line class="cls-8" x1="497.78" y1="282.54" x2="488.19" y2="284.3"/><line class="cls-8" x1="507.37" y1="284.39" x2="497.78" y2="282.54"/><line class="cls-8" x1="516.96" y1="280.39" x2="507.37" y2="284.39"/><text class="cls-3" transform="translate(514.61 519.52) rotate(90)">2015-16(est)</text><text class="cls-3" transform="translate(505.02 519.52) rotate(90)">2014-15</text><text class="cls-3" transform="translate(495.43 519.52) rotate(90)">2013-14</text><text class="cls-3" transform="translate(485.84 519.52) rotate(90)">2012-13</text><text class="cls-3" transform="translate(476.25 519.52) rotate(90)">2011-12</text><text class="cls-3" transform="translate(466.66 519.52) rotate(90)">2010-11</text><text class="cls-3" transform="translate(457.07 519.52) rotate(90)">2009-10</text><text class="cls-3" transform="translate(447.48 519.52) rotate(90)">2008-09</text><text class="cls-3" transform="translate(437.89 519.52) rotate(90)">2007-08</text><text class="cls-3" transform="translate(428.3 519.52) rotate(90)">2006-07</text><text class="cls-3" transform="translate(418.71 519.52) rotate(90)">2005-06</text><text class="cls-3" transform="translate(409.12 519.52) rotate(90)">2004-05</text><text class="cls-3" transform="translate(399.52 519.52) rotate(90)">2003-04</text><text class="cls-3" transform="translate(389.93 519.52) rotate(90)">2002-03</text><text class="cls-3" transform="translate(380.34 519.52) rotate(90)">2001-02</text><text class="cls-3" transform="translate(370.75 519.52) rotate(90)">2000-01</text><text class="cls-3" transform="translate(361.16 519.52) rotate(90)">1999-00</text><text class="cls-3" transform="translate(351.57 519.52) rotate(90)">1998-99</text><text class="cls-3" transform="translate(341.98 519.52) rotate(90)">1997-98</text><text class="cls-3" transform="translate(332.39 519.52) rotate(90)">1996-97</text><text class="cls-3" transform="translate(322.8 519.52) rotate(90)">1995-96</text><text class="cls-3" transform="translate(313.21 519.52) rotate(90)">1994-95</text><text class="cls-3" transform="translate(303.62 519.52) rotate(90)">1993-94</text><text class="cls-3" transform="translate(294.03 519.52) rotate(90)">1992-93</text><text class="cls-3" transform="translate(284.43 519.52) rotate(90)">1991-92</text><text class="cls-3" transform="translate(274.84 519.52) rotate(90)">1990-91</text><text class="cls-3" transform="translate(265.25 519.52) rotate(90)">1989-90</text><text class="cls-3" transform="translate(255.66 519.52) rotate(90)">1988-89</text><text class="cls-3" transform="translate(246.07 519.52) rotate(90)">1987-88</text><text class="cls-3" transform="translate(236.48 519.52) rotate(90)">1986-87</text><text class="cls-3" transform="translate(226.89 519.52) rotate(90)">1985-86</text><text class="cls-3" transform="translate(217.3 519.52) rotate(90)">1984-85</text><text class="cls-3" transform="translate(207.71 519.52) rotate(90)">1983-84</text><text class="cls-3" transform="translate(198.12 519.52) rotate(90)">1982-83</text><text class="cls-3" transform="translate(188.53 519.52) rotate(90)">1981-82</text><text class="cls-3" transform="translate(178.94 519.52) rotate(90)">1980-81</text><text class="cls-3" transform="translate(169.35 519.52) rotate(90)">1979-80</text><text class="cls-3" transform="translate(159.75 519.52) rotate(90)">1978-79</text><text class="cls-3" transform="translate(150.17 519.52) rotate(90)">1977-78</text><text class="cls-3" transform="translate(140.57 519.52) rotate(90)">1976-77</text><text class="cls-3" transform="translate(130.98 519.52) rotate(90)">1975-76</text><text class="cls-3" transform="translate(121.39 519.52) rotate(90)">1974-75</text><text class="cls-3" transform="translate(111.8 519.52) rotate(90)">1973-74</text><text class="cls-3" transform="translate(102.21 519.52) rotate(90)">1972-73</text><text class="cls-3" transform="translate(92.62 519.52) rotate(90)">1971-72</text><text class="cls-3" transform="translate(461.49 319.59)">Undergraduates</text><text class="cls-3" transform="translate(461.49 271.67)">All Students</text><text class="cls-3" transform="translate(461.49 116.59)">Graduates</text><text class="cls-9" transform="translate(57.68 411.61) rotate(-90)">Average Aid per Student in 2015 Dollars</text><text class="cls-10" transform="translate(63.07 52.28)">AVERAGE AID PER FULL-TIME EQUIVALENT STUDENT IN <tspan x="69.71" y="21.6">2015 DOLLARS OVER TIME: 1971–2016</tspan></text></g></svg>