<svg xmlns="http://www.w3.org/2000/svg" viewBox="0 0 576 576"><defs><style>.cls-1{fill:#752570;}.cls-2{font-size:8px;}.cls-2,.cls-3,.cls-8{fill:#fff;}.cls-2,.cls-8{font-family:OpenSans-Light, Open Sans;}.cls-3{font-size:18px;font-family:OpenSans, Open Sans;}.cls-4,.cls-5,.cls-6{fill:none;stroke:#fff;stroke-miterlimit:10;}.cls-5{stroke-width:0.75px;stroke-dasharray:2 2;}.cls-6{stroke-width:0.5px;stroke-dasharray:1 2;}.cls-7{fill:#f5cde1;}.cls-8{font-size:14px;}</style></defs><title>coach_salaries_2016</title><g id="Layer_2" data-name="Layer 2"><rect class="cls-1" width="576" height="576"/></g><g id="Layer_1" data-name="Layer 1"><text class="cls-2" transform="translate(419.98 111.67)">Michigan<tspan x="0" y="9.6">$9,004,000</tspan></text><text class="cls-2" transform="translate(341.98 231.33)">Alabama<tspan x="0" y="9.6">$6,939,395</tspan></text><text class="cls-2" transform="translate(124.31 492)">New Mexico State<tspan x="0" y="9.6">$376,044</tspan></text><text class="cls-3" transform="translate(180.44 57.68)">2016 NCAAF COACH SALARIES</text><text class="cls-3" transform="translate(432.07 51.69) scale(0.58)">*</text><text class="cls-2" transform="translate(410.07 512.07) scale(0.58)">* USATODAY Survey of 128 (119 with Data) Universities</text><line class="cls-4" x1="93.48" y1="503.17" x2="524.48" y2="503.17"/><text class="cls-2" transform="translate(82.18 510.74)">0</text><text class="cls-2" transform="translate(51.34 424.54)">2,000,000</text><text class="cls-2" transform="translate(51.34 338.34)">4,000,000</text><text class="cls-2" transform="translate(51.34 252.14)">6,000,000</text><text class="cls-2" transform="translate(51.34 165.94)">8,000,000</text><text class="cls-2" transform="translate(46.78 79.74)">10,000,000</text><line class="cls-4" x1="93.48" y1="503.17" x2="93.48" y2="72.17"/><line class="cls-5" x1="93.48" y1="503.17" x2="524.48" y2="503.17"/><line class="cls-5" x1="93.48" y1="416.97" x2="524.48" y2="416.97"/><line class="cls-5" x1="93.48" y1="330.77" x2="524.48" y2="330.77"/><line class="cls-5" x1="93.48" y1="244.57" x2="524.48" y2="244.57"/><line class="cls-5" x1="93.48" y1="158.37" x2="524.48" y2="158.37"/><line class="cls-5" x1="93.48" y1="72.17" x2="524.48" y2="72.17"/><line class="cls-6" x1="93.48" y1="474.43" x2="524.48" y2="474.43"/><line class="cls-6" x1="93.48" y1="445.7" x2="524.48" y2="445.7"/><line class="cls-6" x1="93.48" y1="388.23" x2="524.48" y2="388.23"/><line class="cls-6" x1="93.48" y1="359.5" x2="524.48" y2="359.5"/><line class="cls-6" x1="93.48" y1="302.03" x2="524.48" y2="302.03"/><line class="cls-6" x1="93.48" y1="273.3" x2="524.48" y2="273.3"/><line class="cls-6" x1="93.48" y1="215.83" x2="524.48" y2="215.83"/><line class="cls-6" x1="93.48" y1="187.1" x2="524.48" y2="187.1"/><line class="cls-6" x1="93.48" y1="129.63" x2="524.48" y2="129.63"/><line class="cls-6" x1="93.48" y1="100.9" x2="524.48" y2="100.9"/><rect class="cls-7" x="111.49" y="482.93" width="6" height="6"/><rect class="cls-7" x="112.33" y="482.63" width="6" height="6"/><rect class="cls-7" x="112.57" y="482.39" width="6" height="6"/><rect class="cls-7" x="112.95" y="481.7" width="6" height="6"/><rect class="cls-7" x="113.91" y="479.94" width="6" height="6"/><rect class="cls-7" x="115.93" y="478.62" width="6" height="6"/><rect class="cls-7" x="117.42" y="478.19" width="6" height="6"/><rect class="cls-7" x="118.23" y="477.96" width="6" height="6"/><rect class="cls-7" x="118.77" y="476.92" width="6" height="6"/><rect class="cls-7" x="119.89" y="476.6" width="6" height="6"/><rect class="cls-7" x="120.65" y="475.62" width="6" height="6"/><rect class="cls-7" x="121.34" y="475.25" width="6" height="6"/><rect class="cls-7" x="122.33" y="474.31" width="6" height="6"/><rect class="cls-7" x="123.38" y="473.21" width="6" height="6"/><rect class="cls-7" x="125.5" y="471.72" width="6" height="6"/><rect class="cls-7" x="126.85" y="470" width="6" height="6"/><rect class="cls-7" x="131.71" y="465.69" width="6" height="6"/><rect class="cls-7" x="133.64" y="465.51" width="6" height="6"/><rect class="cls-7" x="134.05" y="465.23" width="6" height="6"/><rect class="cls-7" x="134.39" y="464.81" width="6" height="6"/><rect class="cls-7" x="134.87" y="464.18" width="6" height="6"/><rect class="cls-7" x="138.16" y="461.22" width="6" height="6"/><rect class="cls-7" x="139.45" y="459.98" width="6" height="6"/><rect class="cls-7" x="144.36" y="455.27" width="6" height="6"/><rect class="cls-7" x="149.74" y="444.14" width="6" height="6"/><rect class="cls-7" x="165.91" y="437.67" width="6" height="6"/><rect class="cls-7" x="173.91" y="430.14" width="6" height="6"/><rect class="cls-7" x="182.07" y="426.9" width="6" height="6"/><rect class="cls-7" x="182.28" y="422.59" width="6" height="6"/><rect class="cls-7" x="187.95" y="414.56" width="6" height="6"/><rect class="cls-7" x="198.23" y="413.97" width="6" height="6"/><rect class="cls-7" x="198.23" y="413.47" width="6" height="6"/><rect class="cls-7" x="204.33" y="405.78" width="6" height="6"/><rect class="cls-7" x="209.01" y="405.35" width="6" height="6"/><rect class="cls-7" x="215.47" y="400.14" width="6" height="6"/><rect class="cls-7" x="216.21" y="398.88" width="6" height="6"/><rect class="cls-7" x="220.43" y="390.26" width="6" height="6"/><rect class="cls-7" x="228.23" y="383.53" width="6" height="6"/><rect class="cls-7" x="241.33" y="376.9" width="6" height="6"/><rect class="cls-7" x="245.98" y="374.83" width="6" height="6"/><rect class="cls-7" x="249.41" y="371.73" width="6" height="6"/><rect class="cls-7" x="252.24" y="370.72" width="6" height="6"/><rect class="cls-7" x="257.68" y="366.3" width="6" height="6"/><rect class="cls-7" x="262.88" y="359.01" width="6" height="6"/><rect class="cls-7" x="268.62" y="357.39" width="6" height="6"/><rect class="cls-7" x="271" y="351.47" width="6" height="6"/><rect class="cls-7" x="279.78" y="344.75" width="6" height="6"/><rect class="cls-7" x="287.13" y="338.39" width="6" height="6"/><rect class="cls-7" x="293.86" y="331.63" width="6" height="6"/><rect class="cls-7" x="306.77" y="324.87" width="6" height="6"/><rect class="cls-7" x="311.91" y="321.52" width="6" height="6"/><rect class="cls-7" x="316.76" y="316.2" width="6" height="6"/><rect class="cls-7" x="322.14" y="311.15" width="6" height="6"/><rect class="cls-7" x="328.75" y="306.22" width="6" height="6"/><rect class="cls-7" x="332.92" y="297.45" width="6" height="6"/><rect class="cls-7" x="345.28" y="284.67" width="6" height="6"/><rect class="cls-7" x="370.64" y="273.89" width="6" height="6"/><rect class="cls-7" x="389.49" y="237.48" width="6" height="6"/><rect class="cls-7" x="464.34" y="112.09" width="6" height="6"/><text class="cls-8" transform="translate(44.31 394.66) rotate(-90)">$ Head Football Coach Annual Salary</text></g></svg>