<svg xmlns="http://www.w3.org/2000/svg" viewBox="0 0 576 576"><defs><style>.cls-1{fill:#067c77;}.cls-2,.cls-4,.cls-5{fill:none;}.cls-2,.cls-4,.cls-5,.cls-6,.cls-7,.cls-8,.cls-9{stroke:#fff;stroke-miterlimit:10;}.cls-3{font-size:8px;}.cls-10,.cls-11,.cls-3,.cls-9{fill:#fff;}.cls-11,.cls-3{font-family:OpenSans-Light, Open Sans;}.cls-4{stroke-width:0.75px;stroke-dasharray:2 2;}.cls-5,.cls-6,.cls-7,.cls-8,.cls-9{stroke-width:0.5px;}.cls-5{stroke-dasharray:1 2;}.cls-6{fill:#054c43;}.cls-7{fill:#0e826c;}.cls-8{fill:#94d5d5;}.cls-10{font-size:18px;font-family:OpenSans, Open Sans;}.cls-11{font-size:14px;}</style></defs><title>debt_greater_than_40</title><g id="Layer_2" data-name="Layer 2"><rect class="cls-1" width="576" height="576"/></g><g id="Layer_1" data-name="Layer 1"><line class="cls-2" x1="85.59" y1="502.97" x2="516.59" y2="502.97"/><text class="cls-3" transform="translate(67.83 510.55)">0%</text><text class="cls-3" transform="translate(63.26 424.35)">10%</text><text class="cls-3" transform="translate(63.26 338.15)">20%</text><text class="cls-3" transform="translate(63.26 251.95)">30%</text><text class="cls-3" transform="translate(63.26 165.75)">40%</text><text class="cls-3" transform="translate(63.26 79.55)">50%</text><line class="cls-2" x1="85.59" y1="502.97" x2="85.59" y2="71.97"/><line class="cls-4" x1="85.59" y1="502.97" x2="516.59" y2="502.97"/><line class="cls-4" x1="85.59" y1="416.77" x2="516.59" y2="416.77"/><line class="cls-4" x1="85.59" y1="330.57" x2="516.59" y2="330.57"/><line class="cls-4" x1="85.59" y1="244.37" x2="516.59" y2="244.37"/><line class="cls-4" x1="85.59" y1="158.17" x2="516.59" y2="158.17"/><line class="cls-4" x1="85.59" y1="71.97" x2="516.59" y2="71.97"/><line class="cls-5" x1="85.59" y1="474.24" x2="516.59" y2="474.24"/><line class="cls-5" x1="85.59" y1="445.51" x2="516.59" y2="445.51"/><line class="cls-5" x1="85.59" y1="388.04" x2="516.59" y2="388.04"/><line class="cls-5" x1="85.59" y1="359.31" x2="516.59" y2="359.31"/><line class="cls-5" x1="85.59" y1="301.84" x2="516.59" y2="301.84"/><line class="cls-5" x1="85.59" y1="273.11" x2="516.59" y2="273.11"/><line class="cls-5" x1="85.59" y1="215.64" x2="516.59" y2="215.64"/><line class="cls-5" x1="85.59" y1="186.91" x2="516.59" y2="186.91"/><line class="cls-5" x1="85.59" y1="129.44" x2="516.59" y2="129.44"/><line class="cls-5" x1="85.59" y1="100.71" x2="516.59" y2="100.71"/><rect class="cls-6" x="187.59" y="468.49" width="25.86" height="34.48"/><rect class="cls-6" x="331.26" y="347.81" width="25.86" height="155.16"/><rect class="cls-6" x="474.93" y="89.21" width="25.86" height="413.76"/><rect class="cls-7" x="158.86" y="468.49" width="25.86" height="34.48"/><rect class="cls-7" x="302.53" y="390.91" width="25.86" height="112.06"/><rect class="cls-7" x="446.19" y="330.57" width="25.86" height="172.4"/><rect class="cls-8" x="130.13" y="494.35" width="25.86" height="8.62"/><rect class="cls-8" x="273.79" y="459.87" width="25.86" height="43.1"/><rect class="cls-8" x="417.46" y="399.53" width="25.86" height="103.44"/><rect class="cls-9" x="101.39" y="485.73" width="25.86" height="17.24"/><rect class="cls-9" x="245.06" y="434.01" width="25.86" height="68.96"/><rect class="cls-9" x="388.73" y="434.01" width="25.86" height="68.96"/><text class="cls-10" transform="translate(96.66 45.36)">PERCENTAGE OF BACHELOR DEGREE RECIPIENTS <tspan x="79.33" y="21.6">WITH $40,000 OR MORE DEBT</tspan></text><text class="cls-11" transform="translate(54 474.23) rotate(-90)">Percentage with $40,000 or more of debt (in 2012 dollars)</text><text class="cls-11" transform="translate(122.08 546.25)">2003–2004</text><text class="cls-11" transform="translate(409.25 546.25)">2011–2012</text><text class="cls-11" transform="translate(265.75 546.25)">2007–2008</text><text class="cls-3" transform="translate(110.51 514.92) rotate(-45)">All</text><text class="cls-3" transform="translate(132.74 524.23) rotate(-45)">Public</text><text class="cls-3" transform="translate(155.17 526.35) rotate(-45)">Private</text><text class="cls-3" transform="translate(182.21 532.85) rotate(-45)">For-Profit</text><text class="cls-3" transform="translate(253.17 514.92) rotate(-45)">All</text><text class="cls-3" transform="translate(275.41 524.23) rotate(-45)">Public</text><text class="cls-3" transform="translate(297.84 526.35) rotate(-45)">Private</text><text class="cls-3" transform="translate(324.88 532.85) rotate(-45)">For-Profit</text><text class="cls-3" transform="translate(395.84 514.92) rotate(-45)">All</text><text class="cls-3" transform="translate(418.08 524.23) rotate(-45)">Public</text><text class="cls-3" transform="translate(440.51 526.35) rotate(-45)">Private</text><text class="cls-3" transform="translate(467.55 532.85) rotate(-45)">For-Profit</text></g></svg>