<svg xmlns="http://www.w3.org/2000/svg" viewBox="0 0 576 576"><defs><style>.cls-1{fill:#a51d38;}.cls-2{fill:#fcd947;}.cls-2,.cls-3,.cls-4,.cls-5,.cls-6,.cls-7,.cls-8{stroke:#fff;stroke-miterlimit:10;}.cls-2,.cls-3,.cls-4,.cls-6{stroke-width:0.5px;}.cls-10,.cls-12,.cls-3{font-size:8px;}.cls-10,.cls-11,.cls-12,.cls-3,.cls-4,.cls-5,.cls-6,.cls-9{fill:#fff;}.cls-10,.cls-3,.cls-9{font-family:OpenSans-Light, Open Sans;}.cls-5{stroke-width:0.75px;stroke-dasharray:2 2;}.cls-6{stroke-dasharray:1 2;}.cls-7{fill:#d8448e;}.cls-8{fill:#eaa1c6;}.cls-9{font-size:14px;}.cls-11{font-size:18px;}.cls-11,.cls-12{font-family:OpenSans, Open Sans;}</style></defs><title>pres_salary_2009 and 2013</title><g id="Layer_2" data-name="Layer 2"><rect class="cls-1" width="576" height="576"/></g><g id="Layer_1" data-name="Layer 1"><line class="cls-2" x1="100.92" y1="497.94" x2="530.92" y2="497.94"/><text class="cls-3" transform="translate(89.64 505.5)">0</text><text class="cls-3" transform="translate(66.8 433.83)">100000</text><text class="cls-3" transform="translate(66.8 362.16)">200000</text><text class="cls-3" transform="translate(66.8 290.5)">300000</text><text class="cls-3" transform="translate(66.8 218.83)">400000</text><text class="cls-3" transform="translate(66.8 147.16)">500000</text><text class="cls-3" transform="translate(66.8 75.5)">600000</text><line class="cls-4" x1="100.92" y1="497.94" x2="100.92" y2="67.94"/><line class="cls-5" x1="100.92" y1="497.94" x2="530.92" y2="497.94"/><line class="cls-5" x1="100.92" y1="497.94" x2="530.92" y2="497.94"/><line class="cls-5" x1="100.92" y1="426.27" x2="530.92" y2="426.27"/><line class="cls-5" x1="100.92" y1="354.6" x2="530.92" y2="354.6"/><line class="cls-5" x1="100.92" y1="282.94" x2="530.92" y2="282.94"/><line class="cls-5" x1="100.92" y1="211.27" x2="530.92" y2="211.27"/><line class="cls-5" x1="100.92" y1="139.6" x2="530.92" y2="139.6"/><line class="cls-5" x1="100.92" y1="67.94" x2="530.92" y2="67.94"/><line class="cls-6" x1="100.92" y1="474.05" x2="530.92" y2="474.05"/><line class="cls-6" x1="100.92" y1="450.16" x2="530.92" y2="450.16"/><line class="cls-6" x1="100.92" y1="402.38" x2="530.92" y2="402.38"/><line class="cls-6" x1="100.92" y1="378.49" x2="530.92" y2="378.49"/><line class="cls-6" x1="100.92" y1="330.71" x2="530.92" y2="330.71"/><line class="cls-6" x1="100.92" y1="306.83" x2="530.92" y2="306.83"/><line class="cls-6" x1="100.92" y1="259.05" x2="530.92" y2="259.05"/><line class="cls-6" x1="100.92" y1="235.16" x2="530.92" y2="235.16"/><line class="cls-6" x1="100.92" y1="187.38" x2="530.92" y2="187.38"/><line class="cls-6" x1="100.92" y1="163.49" x2="530.92" y2="163.49"/><line class="cls-6" x1="100.92" y1="115.71" x2="530.92" y2="115.71"/><line class="cls-6" x1="100.92" y1="91.83" x2="530.92" y2="91.83"/><rect class="cls-7" x="241.03" y="129.48" width="35.12" height="368.46"/><rect class="cls-7" x="456.03" y="81.37" width="35.12" height="416.57"/><rect class="cls-8" x="190.86" y="219.06" width="35.12" height="278.88"/><rect class="cls-8" x="405.86" y="159.07" width="35.12" height="338.87"/><rect class="cls-4" x="140.7" y="153.98" width="35.12" height="343.96"/><rect class="cls-4" x="355.7" y="102.62" width="35.12" height="395.31"/><text class="cls-9" transform="translate(192.69 531.89)">2009</text><text class="cls-10" transform="translate(154.21 509.4)">All</text><text class="cls-10" transform="translate(197.88 509.4)">Public</text><text class="cls-10" transform="translate(246.51 509.4)">Private</text><text class="cls-10" transform="translate(369.09 509.4)">All</text><text class="cls-10" transform="translate(412.38 509.4)">Public</text><text class="cls-10" transform="translate(461.51 509.4)">Private</text><text class="cls-9" transform="translate(407.6 531.89)">2013</text><text class="cls-11" transform="translate(109.84 37.41)">UNIVERSITY PRESIDENT PAY 2009 AND 2013</text><text class="cls-11" transform="translate(477.96 31.41) scale(0.58)">*</text><text class="cls-11" transform="translate(483.75 37.41)">:<tspan x="-332.46" y="21.6">PRIVATE AND PUBLIC UNIVERSITIES</tspan></text><text class="cls-9" transform="translate(56.92 433.66) rotate(-90)">$ Mean Presidential Pay (Fiscal or Annual Year)</text><text x="0.02" y="-0.19"></text><text class="cls-12" transform="translate(369.02 549.22) scale(0.58)">*Based on a sample of 458 Scools from the Chronice of Higher Education</text></g></svg>