<svg xmlns="http://www.w3.org/2000/svg" viewBox="0 0 577 577"><defs><style>.cls-1{fill:#e058a0;stroke:#231f20;}.cls-1,.cls-3,.cls-4,.cls-5,.cls-6,.cls-7,.cls-8,.cls-9{stroke-miterlimit:10;}.cls-2{font-size:8px;}.cls-10,.cls-11,.cls-2{fill:#fff;}.cls-10,.cls-2{font-family:OpenSans-Light, Open Sans;}.cls-3,.cls-4,.cls-5,.cls-6,.cls-7,.cls-8,.cls-9{fill:none;}.cls-3,.cls-4,.cls-5,.cls-6,.cls-7{stroke:#fff;}.cls-4,.cls-5{stroke-width:0.75px;}.cls-5,.cls-7{stroke-dasharray:1 2;}.cls-6,.cls-7{stroke-width:0.5px;}.cls-8{stroke:#841c59;}.cls-8,.cls-9{stroke-linecap:round;stroke-width:2px;}.cls-9{stroke:#f79981;}.cls-10{font-size:14px;}.cls-11{font-size:18px;font-family:OpenSans, Open Sans;}</style></defs><title>room_board_76_2016</title><g id="Layer_1" data-name="Layer 1"><rect class="cls-1" x="0.5" y="0.5" width="576" height="576"/></g><g id="Layer_2" data-name="Layer 2"><text class="cls-2" transform="translate(459.83 94.61)">Private</text><text class="cls-2" transform="translate(461.33 178.62)">Public</text><line class="cls-3" x1="91.36" y1="515.52" x2="522.36" y2="515.52"/><text class="cls-2" transform="translate(66.36 523.1)">4000</text><text class="cls-2" transform="translate(66.36 415.35)">6000</text><text class="cls-2" transform="translate(66.36 307.6)">8000</text><text class="cls-2" transform="translate(61.79 199.85)">10000</text><text class="cls-2" transform="translate(61.79 92.1)">12000</text><line class="cls-3" x1="91.36" y1="515.52" x2="91.36" y2="84.52"/><line class="cls-4" x1="91.36" y1="515.52" x2="91.86" y2="515.52"/><line class="cls-5" x1="93.85" y1="515.52" x2="520.86" y2="515.52"/><line class="cls-4" x1="521.86" y1="515.52" x2="522.36" y2="515.52"/><line class="cls-4" x1="91.36" y1="407.77" x2="91.86" y2="407.77"/><line class="cls-5" x1="93.85" y1="407.77" x2="520.86" y2="407.77"/><line class="cls-4" x1="521.86" y1="407.77" x2="522.36" y2="407.77"/><line class="cls-4" x1="91.36" y1="300.02" x2="91.86" y2="300.02"/><line class="cls-5" x1="93.85" y1="300.02" x2="520.86" y2="300.02"/><line class="cls-4" x1="521.86" y1="300.02" x2="522.36" y2="300.02"/><line class="cls-4" x1="91.36" y1="192.27" x2="91.86" y2="192.27"/><line class="cls-5" x1="93.85" y1="192.27" x2="520.86" y2="192.27"/><line class="cls-4" x1="521.86" y1="192.27" x2="522.36" y2="192.27"/><line class="cls-4" x1="91.36" y1="84.52" x2="91.86" y2="84.52"/><line class="cls-5" x1="93.85" y1="84.52" x2="520.86" y2="84.52"/><line class="cls-4" x1="521.86" y1="84.52" x2="522.36" y2="84.52"/><line class="cls-6" x1="91.36" y1="479.6" x2="91.86" y2="479.6"/><line class="cls-7" x1="93.85" y1="479.6" x2="520.86" y2="479.6"/><line class="cls-6" x1="521.86" y1="479.6" x2="522.36" y2="479.6"/><line class="cls-6" x1="91.36" y1="443.69" x2="91.86" y2="443.69"/><line class="cls-7" x1="93.85" y1="443.69" x2="520.86" y2="443.69"/><line class="cls-6" x1="521.86" y1="443.69" x2="522.36" y2="443.69"/><line class="cls-6" x1="91.36" y1="371.85" x2="91.86" y2="371.85"/><line class="cls-7" x1="93.85" y1="371.85" x2="520.86" y2="371.85"/><line class="cls-6" x1="521.86" y1="371.85" x2="522.36" y2="371.85"/><line class="cls-6" x1="91.36" y1="335.94" x2="91.86" y2="335.94"/><line class="cls-7" x1="93.85" y1="335.94" x2="520.86" y2="335.94"/><line class="cls-6" x1="521.86" y1="335.94" x2="522.36" y2="335.94"/><line class="cls-6" x1="91.36" y1="264.1" x2="91.86" y2="264.1"/><line class="cls-7" x1="93.85" y1="264.1" x2="520.86" y2="264.1"/><line class="cls-6" x1="521.86" y1="264.1" x2="522.36" y2="264.1"/><line class="cls-6" x1="91.36" y1="228.19" x2="91.86" y2="228.19"/><line class="cls-7" x1="93.85" y1="228.19" x2="520.86" y2="228.19"/><line class="cls-6" x1="521.86" y1="228.19" x2="522.36" y2="228.19"/><line class="cls-6" x1="91.36" y1="156.35" x2="91.86" y2="156.35"/><line class="cls-7" x1="93.85" y1="156.35" x2="520.86" y2="156.35"/><line class="cls-6" x1="521.86" y1="156.35" x2="522.36" y2="156.35"/><line class="cls-6" x1="91.36" y1="120.44" x2="91.86" y2="120.44"/><line class="cls-7" x1="93.85" y1="120.44" x2="520.86" y2="120.44"/><line class="cls-6" x1="521.86" y1="120.44" x2="522.36" y2="120.44"/><line class="cls-8" x1="163.19" y1="453.56" x2="115.3" y2="431.47"/><line class="cls-8" x1="211.08" y1="419.08" x2="163.19" y2="453.56"/><line class="cls-8" x1="258.97" y1="412.62" x2="211.08" y2="419.08"/><line class="cls-8" x1="306.86" y1="386.76" x2="258.97" y2="412.62"/><line class="cls-8" x1="354.75" y1="346.35" x2="306.86" y2="386.76"/><line class="cls-8" x1="402.64" y1="282.78" x2="354.75" y2="346.35"/><line class="cls-8" x1="450.53" y1="221.9" x2="402.64" y2="282.78"/><line class="cls-8" x1="498.41" y1="168.56" x2="450.53" y2="221.9"/><line class="cls-9" x1="163.19" y1="417.47" x2="115.3" y2="403.46"/><line class="cls-9" x1="211.08" y1="352.82" x2="163.19" y2="417.47"/><line class="cls-9" x1="258.97" y1="314.57" x2="211.08" y2="352.82"/><line class="cls-9" x1="306.86" y1="288.17" x2="258.97" y2="314.57"/><line class="cls-9" x1="354.75" y1="258" x2="306.86" y2="288.17"/><line class="cls-9" x1="402.64" y1="209.51" x2="354.75" y2="258"/><line class="cls-9" x1="450.53" y1="151.86" x2="402.64" y2="209.51"/><line class="cls-9" x1="498.41" y1="90.45" x2="450.53" y2="151.86"/><text class="cls-2" transform="translate(483.43 534.74)">2016-17</text><text class="cls-2" transform="translate(435.54 534.74)">2011-12</text><text class="cls-2" transform="translate(387.65 534.74)">2006-07</text><text class="cls-2" transform="translate(339.76 534.74)">2001-02</text><text class="cls-2" transform="translate(291.87 534.74)">1996-97</text><text class="cls-2" transform="translate(243.98 534.74)">1991-92</text><text class="cls-2" transform="translate(196.09 534.74)">1986-87</text><text class="cls-2" transform="translate(148.21 534.74)">1981-82</text><text class="cls-2" transform="translate(100.32 534.74)">1976-77</text><text class="cls-10" transform="translate(56.64 435.35) rotate(-90)">$Average Room and Board in 2016 Dollars</text><text class="cls-11" transform="translate(103.83 59.02)">AVERAGE ROOM AND BOARD IN 2016 DOLLARS: <tspan x="119.83" y="21.6">1976-77 TO 2016-17</tspan></text></g></svg>