<svg xmlns="http://www.w3.org/2000/svg" viewBox="0 0 576 576"><defs><style>.cls-1{fill:#128f45;}.cls-2,.cls-4,.cls-5,.cls-6,.cls-7,.cls-8,.cls-9{fill:none;stroke-miterlimit:10;}.cls-2,.cls-4,.cls-5,.cls-6,.cls-7{stroke:#fff;}.cls-3{font-size:8px;}.cls-10,.cls-11,.cls-3{fill:#fff;}.cls-11,.cls-3{font-family:OpenSans-Light, Open Sans;}.cls-4,.cls-5{stroke-width:0.75px;}.cls-5{stroke-dasharray:1.99 1.99;}.cls-6,.cls-7{stroke-width:0.5px;}.cls-7{stroke-dasharray:1 2;}.cls-8{stroke:#efea45;}.cls-8,.cls-9{stroke-linecap:round;stroke-width:2px;}.cls-9{stroke:#ec7e2c;}.cls-10{font-size:18px;font-family:OpenSans, Open Sans;}.cls-11{font-size:14px;}</style></defs><title>student_debt_1999_2015</title><g id="Layer_1" data-name="Layer 1"><rect class="cls-1" width="576" height="576"/></g><g id="Layer_2" data-name="Layer 2"><line class="cls-2" x1="101.63" y1="527.82" x2="531.63" y2="527.82"/><text class="cls-3" transform="translate(72.08 535.37)">20000</text><text class="cls-3" transform="translate(72.08 392.04)">25000</text><text class="cls-3" transform="translate(72.08 248.71)">30000</text><text class="cls-3" transform="translate(72.08 105.37)">35000</text><line class="cls-2" x1="101.63" y1="527.82" x2="101.63" y2="97.82"/><line class="cls-4" x1="101.63" y1="527.82" x2="102.63" y2="527.82"/><line class="cls-5" x1="104.62" y1="527.82" x2="529.63" y2="527.82"/><line class="cls-4" x1="530.63" y1="527.82" x2="531.63" y2="527.82"/><line class="cls-4" x1="101.63" y1="384.48" x2="102.63" y2="384.48"/><line class="cls-5" x1="104.62" y1="384.48" x2="529.63" y2="384.48"/><line class="cls-4" x1="530.63" y1="384.48" x2="531.63" y2="384.48"/><line class="cls-4" x1="101.63" y1="241.15" x2="102.63" y2="241.15"/><line class="cls-5" x1="104.62" y1="241.15" x2="529.63" y2="241.15"/><line class="cls-4" x1="530.63" y1="241.15" x2="531.63" y2="241.15"/><line class="cls-4" x1="101.63" y1="97.82" x2="102.63" y2="97.82"/><line class="cls-5" x1="104.62" y1="97.82" x2="529.63" y2="97.82"/><line class="cls-4" x1="530.63" y1="97.82" x2="531.63" y2="97.82"/><line class="cls-6" x1="101.63" y1="480.04" x2="102.13" y2="480.04"/><line class="cls-7" x1="104.13" y1="480.04" x2="530.13" y2="480.04"/><line class="cls-6" x1="531.13" y1="480.04" x2="531.63" y2="480.04"/><line class="cls-6" x1="101.63" y1="432.26" x2="102.13" y2="432.26"/><line class="cls-7" x1="104.13" y1="432.26" x2="530.13" y2="432.26"/><line class="cls-6" x1="531.13" y1="432.26" x2="531.63" y2="432.26"/><line class="cls-6" x1="101.63" y1="336.71" x2="102.13" y2="336.71"/><line class="cls-7" x1="104.13" y1="336.71" x2="530.13" y2="336.71"/><line class="cls-6" x1="531.13" y1="336.71" x2="531.63" y2="336.71"/><line class="cls-6" x1="101.63" y1="288.93" x2="102.13" y2="288.93"/><line class="cls-7" x1="104.13" y1="288.93" x2="530.13" y2="288.93"/><line class="cls-6" x1="531.13" y1="288.93" x2="531.63" y2="288.93"/><line class="cls-6" x1="101.63" y1="193.37" x2="102.13" y2="193.37"/><line class="cls-7" x1="104.13" y1="193.37" x2="530.13" y2="193.37"/><line class="cls-6" x1="531.13" y1="193.37" x2="531.63" y2="193.37"/><line class="cls-6" x1="101.63" y1="145.59" x2="102.13" y2="145.59"/><line class="cls-7" x1="104.13" y1="145.59" x2="530.13" y2="145.59"/><line class="cls-6" x1="531.13" y1="145.59" x2="531.63" y2="145.59"/><line class="cls-8" x1="262.88" y1="307.08" x2="155.38" y2="416.02"/><line class="cls-8" x1="370.38" y1="238.28" x2="262.88" y2="307.08"/><line class="cls-8" x1="477.88" y1="201.02" x2="370.38" y2="238.28"/><line class="cls-9" x1="262.88" y1="479.08" x2="155.38" y2="502.02"/><line class="cls-9" x1="370.38" y1="418.88" x2="262.88" y2="479.08"/><line class="cls-9" x1="477.88" y1="332.88" x2="370.38" y2="418.88"/><text class="cls-3" transform="translate(462.89 549.65)">2014-15</text><text class="cls-3" transform="translate(355.39 549.65)">2009-10</text><text class="cls-3" transform="translate(247.89 549.65)">2004-05</text><text class="cls-3" transform="translate(140.39 549.65)">1999-00</text><text class="cls-10" transform="translate(188.47 61.63)">STUDENT DEBT 1999-2015:<tspan x="-77.09" y="21.6">PUBLIC AND PRIVATE NON-PROFIT SCHOOLS </tspan></text><text class="cls-11" transform="translate(64.31 380.47) rotate(-90)">$ Average Debt per Borrower</text><text class="cls-3" transform="translate(484.75 203.08)">Private</text><text class="cls-3" transform="translate(484.75 330.58)">Public</text><text class="cls-3" transform="translate(131.44 406.33)">$23,900</text><text class="cls-3" transform="translate(234.77 305.17)">$27,700</text><text class="cls-3" transform="translate(341.44 233.33)">$30,100</text><text class="cls-3" transform="translate(430.77 203.5)">$31,400</text><text class="cls-3" transform="translate(430.77 331)">$26,800</text><text class="cls-3" transform="translate(125.61 495.83)">$20,900</text><text class="cls-3" transform="translate(234.77 470)">$21,700</text><text class="cls-3" transform="translate(341.44 410.83)">$23,800</text></g></svg>